<svg width="141" height="73" viewBox="0 0 141 73" fill="none" xmlns="http://www.w3.org/2000/svg">
<path d="M1.4 59.2C1.78133 59.2 2.096 59.336 2.344 59.608C2.59467 59.8773 2.72 60.208 2.72 60.6C2.72 60.992 2.59467 61.324 2.344 61.596C2.096 61.8653 1.78133 62 1.4 62H0.32V59.2H1.4ZM1.4 61.736C1.70667 61.736 1.95733 61.6267 2.152 61.408C2.34933 61.1893 2.448 60.92 2.448 60.6C2.448 60.28 2.34933 60.0107 2.152 59.792C1.95733 59.5733 1.70667 59.464 1.4 59.464H0.6V61.736H1.4ZM3.42691 59.52C3.38957 59.5573 3.34424 59.576 3.29091 59.576C3.23757 59.576 3.19224 59.5573 3.15491 59.52C3.11757 59.4827 3.09891 59.4373 3.09891 59.384C3.09891 59.3307 3.11757 59.2853 3.15491 59.248C3.19224 59.2107 3.23757 59.192 3.29091 59.192C3.34424 59.192 3.38957 59.2107 3.42691 59.248C3.46424 59.2853 3.48291 59.3307 3.48291 59.384C3.48291 59.4373 3.46424 59.4827 3.42691 59.52ZM3.15891 62V60H3.42291V62H3.15891ZM5.70312 60H5.96713V61.92C5.96713 62.208 5.86846 62.4347 5.67113 62.6C5.47379 62.7653 5.23779 62.848 4.96313 62.848C4.49379 62.848 4.17779 62.6853 4.01513 62.36L4.24713 62.228C4.36713 62.4707 4.60579 62.592 4.96313 62.592C5.19246 62.592 5.37246 62.5307 5.50313 62.408C5.63646 62.288 5.70312 62.1253 5.70312 61.92V61.608C5.51913 61.9013 5.24979 62.048 4.89513 62.048C4.60979 62.048 4.36579 61.9467 4.16313 61.744C3.96313 61.5413 3.86313 61.2933 3.86313 61C3.86313 60.7067 3.96313 60.4587 4.16313 60.256C4.36579 60.0533 4.60979 59.952 4.89513 59.952C5.24979 59.952 5.51913 60.0987 5.70312 60.392V60ZM4.35513 61.564C4.50713 61.716 4.69379 61.792 4.91513 61.792C5.13646 61.792 5.32313 61.716 5.47513 61.564C5.62713 61.4093 5.70312 61.2213 5.70312 61C5.70312 60.7787 5.62713 60.592 5.47513 60.44C5.32313 60.2853 5.13646 60.208 4.91513 60.208C4.69379 60.208 4.50713 60.2853 4.35513 60.44C4.20313 60.592 4.12713 60.7787 4.12713 61C4.12713 61.2213 4.20313 61.4093 4.35513 61.564ZM6.79409 59.52C6.75676 59.5573 6.71143 59.576 6.65809 59.576C6.60476 59.576 6.55943 59.5573 6.52209 59.52C6.48476 59.4827 6.46609 59.4373 6.46609 59.384C6.46609 59.3307 6.48476 59.2853 6.52209 59.248C6.55943 59.2107 6.60476 59.192 6.65809 59.192C6.71143 59.192 6.75676 59.2107 6.79409 59.248C6.83143 59.2853 6.85009 59.3307 6.85009 59.384C6.85009 59.4373 6.83143 59.4827 6.79409 59.52ZM6.52609 62V60H6.79009V62H6.52609ZM8.41031 60.256H7.83431V61.468C7.83431 61.5773 7.85565 61.656 7.89831 61.704C7.94098 61.7493 8.00498 61.7733 8.09031 61.776C8.17565 61.776 8.28231 61.7733 8.41031 61.768V62C8.13031 62.0427 7.91965 62.0227 7.77831 61.94C7.63965 61.8573 7.57031 61.7 7.57031 61.468V60.256H7.15031V60H7.57031V59.52L7.83431 59.44V60H8.41031V60.256ZM10.4492 60H10.7132V62H10.4492V61.608C10.2652 61.9013 9.99589 62.048 9.64122 62.048C9.35589 62.048 9.11189 61.9467 8.90922 61.744C8.70922 61.5413 8.60922 61.2933 8.60922 61C8.60922 60.7067 8.70922 60.4587 8.90922 60.256C9.11189 60.0533 9.35589 59.952 9.64122 59.952C9.99589 59.952 10.2652 60.0987 10.4492 60.392V60ZM9.10122 61.564C9.25322 61.716 9.43989 61.792 9.66122 61.792C9.88255 61.792 10.0692 61.716 10.2212 61.564C10.3732 61.4093 10.4492 61.2213 10.4492 61C10.4492 60.7787 10.3732 60.592 10.2212 60.44C10.0692 60.2853 9.88255 60.208 9.66122 60.208C9.43989 60.208 9.25322 60.2853 9.10122 60.44C8.94922 60.592 8.87322 60.7787 8.87322 61C8.87322 61.2213 8.94922 61.4093 9.10122 61.564ZM11.2722 62V59.08H11.5362V62H11.2722ZM14.8164 59.2H15.0804V62H14.8164V61.608C14.6324 61.9013 14.3631 62.048 14.0084 62.048C13.7231 62.048 13.4791 61.9467 13.2764 61.744C13.0764 61.5413 12.9764 61.2933 12.9764 61C12.9764 60.7067 13.0764 60.4587 13.2764 60.256C13.4791 60.0533 13.7231 59.952 14.0084 59.952C14.3631 59.952 14.6324 60.0987 14.8164 60.392V59.2ZM13.4684 61.564C13.6204 61.716 13.8071 61.792 14.0284 61.792C14.2497 61.792 14.4364 61.716 14.5884 61.564C14.7404 61.4093 14.8164 61.2213 14.8164 61C14.8164 60.7787 14.7404 60.592 14.5884 60.44C14.4364 60.2853 14.2497 60.208 14.0284 60.208C13.8071 60.208 13.6204 60.2853 13.4684 60.44C13.3164 60.592 13.2404 60.7787 13.2404 61C13.2404 61.2213 13.3164 61.4093 13.4684 61.564ZM16.5634 59.952C16.8594 59.952 17.098 60.0573 17.2794 60.268C17.4634 60.476 17.5554 60.7227 17.5554 61.008C17.5554 61.0373 17.5527 61.0787 17.5474 61.132H15.7914C15.818 61.3347 15.9034 61.496 16.0474 61.616C16.194 61.7333 16.374 61.792 16.5874 61.792C16.7394 61.792 16.87 61.7613 16.9794 61.7C17.0914 61.636 17.1754 61.5533 17.2314 61.452L17.4634 61.588C17.3754 61.7293 17.2554 61.8413 17.1034 61.924C16.9514 62.0067 16.778 62.048 16.5834 62.048C16.2687 62.048 16.0127 61.9493 15.8154 61.752C15.618 61.5547 15.5194 61.304 15.5194 61C15.5194 60.7013 15.6167 60.452 15.8114 60.252C16.006 60.052 16.2567 59.952 16.5634 59.952ZM16.5634 60.208C16.3554 60.208 16.1807 60.2707 16.0394 60.396C15.9007 60.5187 15.818 60.6787 15.7914 60.876H17.2834C17.2567 60.6653 17.1754 60.5013 17.0394 60.384C16.9034 60.2667 16.7447 60.208 16.5634 60.208ZM18.1052 60.524C18.1052 60.6147 18.1452 60.6867 18.2252 60.74C18.3052 60.7933 18.4025 60.8347 18.5172 60.864C18.6319 60.8933 18.7465 60.9267 18.8612 60.964C18.9759 60.9987 19.0732 61.0587 19.1532 61.144C19.2332 61.2267 19.2732 61.336 19.2732 61.472C19.2732 61.6427 19.2052 61.7813 19.0692 61.888C18.9359 61.9947 18.7625 62.048 18.5492 62.048C18.3572 62.048 18.1932 62.0053 18.0572 61.92C17.9239 61.8347 17.8305 61.724 17.7772 61.588L18.0012 61.456C18.0385 61.56 18.1052 61.6427 18.2012 61.704C18.2999 61.7627 18.4159 61.792 18.5492 61.792C18.6799 61.792 18.7892 61.7667 18.8772 61.716C18.9652 61.6627 19.0092 61.5813 19.0092 61.472C19.0092 61.3813 18.9692 61.3093 18.8892 61.256C18.8092 61.2027 18.7119 61.1613 18.5972 61.132C18.4825 61.1027 18.3679 61.0707 18.2532 61.036C18.1385 60.9987 18.0412 60.9387 17.9612 60.856C17.8812 60.7707 17.8412 60.66 17.8412 60.524C17.8412 60.3613 17.9052 60.2253 18.0332 60.116C18.1639 60.0067 18.3279 59.952 18.5252 59.952C18.6879 59.952 18.8305 59.9893 18.9532 60.064C19.0759 60.136 19.1665 60.2347 19.2252 60.36L19.0052 60.488C18.9279 60.3013 18.7679 60.208 18.5252 60.208C18.4105 60.208 18.3119 60.236 18.2292 60.292C18.1465 60.3453 18.1052 60.4227 18.1052 60.524ZM19.9621 59.52C19.9247 59.5573 19.8794 59.576 19.8261 59.576C19.7727 59.576 19.7274 59.5573 19.6901 59.52C19.6527 59.4827 19.6341 59.4373 19.6341 59.384C19.6341 59.3307 19.6527 59.2853 19.6901 59.248C19.7274 59.2107 19.7727 59.192 19.8261 59.192C19.8794 59.192 19.9247 59.2107 19.9621 59.248C19.9994 59.2853 20.0181 59.3307 20.0181 59.384C20.0181 59.4373 19.9994 59.4827 19.9621 59.52ZM19.6941 62V60H19.9581V62H19.6941ZM22.2383 60H22.5023V61.92C22.5023 62.208 22.4036 62.4347 22.2063 62.6C22.0089 62.7653 21.7729 62.848 21.4983 62.848C21.0289 62.848 20.7129 62.6853 20.5503 62.36L20.7823 62.228C20.9023 62.4707 21.1409 62.592 21.4983 62.592C21.7276 62.592 21.9076 62.5307 22.0383 62.408C22.1716 62.288 22.2383 62.1253 22.2383 61.92V61.608C22.0543 61.9013 21.7849 62.048 21.4303 62.048C21.1449 62.048 20.9009 61.9467 20.6983 61.744C20.4983 61.5413 20.3983 61.2933 20.3983 61C20.3983 60.7067 20.4983 60.4587 20.6983 60.256C20.9009 60.0533 21.1449 59.952 21.4303 59.952C21.7849 59.952 22.0543 60.0987 22.2383 60.392V60ZM20.8903 61.564C21.0423 61.716 21.2289 61.792 21.4503 61.792C21.6716 61.792 21.8583 61.716 22.0103 61.564C22.1623 61.4093 22.2383 61.2213 22.2383 61C22.2383 60.7787 22.1623 60.592 22.0103 60.44C21.8583 60.2853 21.6716 60.208 21.4503 60.208C21.2289 60.208 21.0423 60.2853 20.8903 60.44C20.7383 60.592 20.6623 60.7787 20.6623 61C20.6623 61.2213 20.7383 61.4093 20.8903 61.564ZM23.9973 59.952C24.2399 59.952 24.4306 60.0267 24.5693 60.176C24.7106 60.3227 24.7812 60.5213 24.7812 60.772V62H24.5173V60.772C24.5173 60.5933 24.4693 60.4547 24.3733 60.356C24.2799 60.2573 24.1466 60.208 23.9733 60.208C23.7813 60.208 23.6253 60.2693 23.5053 60.392C23.3853 60.512 23.3253 60.6987 23.3253 60.952V62H23.0613V60H23.3253V60.312C23.4746 60.072 23.6986 59.952 23.9973 59.952ZM25.7317 61.66L25.4917 62.56H25.2517L25.4117 61.66H25.7317ZM28.9727 59.2H29.2367V62H28.9727V61.608C28.7887 61.9013 28.5193 62.048 28.1647 62.048C27.8793 62.048 27.6353 61.9467 27.4327 61.744C27.2327 61.5413 27.1327 61.2933 27.1327 61C27.1327 60.7067 27.2327 60.4587 27.4327 60.256C27.6353 60.0533 27.8793 59.952 28.1647 59.952C28.5193 59.952 28.7887 60.0987 28.9727 60.392V59.2ZM27.6247 61.564C27.7767 61.716 27.9633 61.792 28.1847 61.792C28.406 61.792 28.5927 61.716 28.7447 61.564C28.8967 61.4093 28.9727 61.2213 28.9727 61C28.9727 60.7787 28.8967 60.592 28.7447 60.44C28.5927 60.2853 28.406 60.208 28.1847 60.208C27.9633 60.208 27.7767 60.2853 27.6247 60.44C27.4727 60.592 27.3967 60.7787 27.3967 61C27.3967 61.2213 27.4727 61.4093 27.6247 61.564ZM30.7196 59.952C31.0156 59.952 31.2543 60.0573 31.4356 60.268C31.6196 60.476 31.7116 60.7227 31.7116 61.008C31.7116 61.0373 31.709 61.0787 31.7036 61.132H29.9476C29.9743 61.3347 30.0596 61.496 30.2036 61.616C30.3503 61.7333 30.5303 61.792 30.7436 61.792C30.8956 61.792 31.0263 61.7613 31.1356 61.7C31.2476 61.636 31.3316 61.5533 31.3876 61.452L31.6196 61.588C31.5316 61.7293 31.4116 61.8413 31.2596 61.924C31.1076 62.0067 30.9343 62.048 30.7396 62.048C30.425 62.048 30.169 61.9493 29.9716 61.752C29.7743 61.5547 29.6756 61.304 29.6756 61C29.6756 60.7013 29.773 60.452 29.9676 60.252C30.1623 60.052 30.413 59.952 30.7196 59.952ZM30.7196 60.208C30.5116 60.208 30.337 60.2707 30.1956 60.396C30.057 60.5187 29.9743 60.6787 29.9476 60.876H31.4396C31.413 60.6653 31.3316 60.5013 31.1956 60.384C31.0596 60.2667 30.901 60.208 30.7196 60.208ZM33.4934 60H33.7734L32.9534 62H32.6334L31.8134 60H32.0934L32.7934 61.724L33.4934 60ZM34.9384 59.952C35.2344 59.952 35.473 60.0573 35.6544 60.268C35.8384 60.476 35.9304 60.7227 35.9304 61.008C35.9304 61.0373 35.9277 61.0787 35.9224 61.132H34.1664C34.193 61.3347 34.2784 61.496 34.4224 61.616C34.569 61.7333 34.749 61.792 34.9624 61.792C35.1144 61.792 35.245 61.7613 35.3544 61.7C35.4664 61.636 35.5504 61.5533 35.6064 61.452L35.8384 61.588C35.7504 61.7293 35.6304 61.8413 35.4784 61.924C35.3264 62.0067 35.153 62.048 34.9584 62.048C34.6437 62.048 34.3877 61.9493 34.1904 61.752C33.993 61.5547 33.8944 61.304 33.8944 61C33.8944 60.7013 33.9917 60.452 34.1864 60.252C34.381 60.052 34.6317 59.952 34.9384 59.952ZM34.9384 60.208C34.7304 60.208 34.5557 60.2707 34.4144 60.396C34.2757 60.5187 34.193 60.6787 34.1664 60.876H35.6584C35.6317 60.6653 35.5504 60.5013 35.4144 60.384C35.2784 60.2667 35.1197 60.208 34.9384 60.208ZM36.3503 62V59.08H36.6143V62H36.3503ZM38.8505 61.748C38.6479 61.948 38.3999 62.048 38.1065 62.048C37.8132 62.048 37.5639 61.948 37.3585 61.748C37.1559 61.5453 37.0545 61.296 37.0545 61C37.0545 60.704 37.1559 60.456 37.3585 60.256C37.5639 60.0533 37.8132 59.952 38.1065 59.952C38.3999 59.952 38.6479 60.0533 38.8505 60.256C39.0559 60.456 39.1585 60.704 39.1585 61C39.1585 61.296 39.0559 61.5453 38.8505 61.748ZM37.5465 61.564C37.6985 61.716 37.8852 61.792 38.1065 61.792C38.3279 61.792 38.5145 61.716 38.6665 61.564C38.8185 61.4093 38.8945 61.2213 38.8945 61C38.8945 60.7787 38.8185 60.592 38.6665 60.44C38.5145 60.2853 38.3279 60.208 38.1065 60.208C37.8852 60.208 37.6985 60.2853 37.5465 60.44C37.3945 60.592 37.3185 60.7787 37.3185 61C37.3185 61.2213 37.3945 61.4093 37.5465 61.564ZM40.6723 59.952C40.9576 59.952 41.2003 60.0533 41.4003 60.256C41.603 60.4587 41.7043 60.7067 41.7043 61C41.7043 61.2933 41.603 61.5413 41.4003 61.744C41.2003 61.9467 40.9576 62.048 40.6723 62.048C40.3176 62.048 40.0483 61.9013 39.8643 61.608V62.8H39.6003V60H39.8643V60.392C40.0483 60.0987 40.3176 59.952 40.6723 59.952ZM40.0923 61.564C40.2443 61.716 40.431 61.792 40.6523 61.792C40.8736 61.792 41.0603 61.716 41.2123 61.564C41.3643 61.4093 41.4403 61.2213 41.4403 61C41.4403 60.7787 41.3643 60.592 41.2123 60.44C41.0603 60.2853 40.8736 60.208 40.6523 60.208C40.431 60.208 40.2443 60.2853 40.0923 60.44C39.9403 60.592 39.8643 60.7787 39.8643 61C39.8643 61.2213 39.9403 61.4093 40.0923 61.564ZM44.2753 59.952C44.4993 59.952 44.6793 60.024 44.8153 60.168C44.9539 60.312 45.0233 60.5067 45.0233 60.752V62H44.7593V60.752C44.7593 60.5787 44.7139 60.4453 44.6233 60.352C44.5353 60.256 44.4179 60.208 44.2713 60.208C44.1059 60.208 43.9713 60.264 43.8673 60.376C43.7659 60.4853 43.7153 60.6573 43.7153 60.892V62H43.4513V60.752C43.4513 60.576 43.4086 60.4413 43.3233 60.348C43.2406 60.2547 43.1273 60.208 42.9833 60.208C42.8233 60.208 42.6873 60.264 42.5753 60.376C42.4633 60.488 42.4073 60.66 42.4073 60.892V62H42.1433V60H42.4073V60.292C42.5513 60.0653 42.7553 59.952 43.0193 59.952C43.3073 59.952 43.5099 60.0733 43.6273 60.316C43.7713 60.0733 43.9873 59.952 44.2753 59.952ZM46.4579 59.952C46.7539 59.952 46.9926 60.0573 47.1739 60.268C47.3579 60.476 47.4499 60.7227 47.4499 61.008C47.4499 61.0373 47.4472 61.0787 47.4419 61.132H45.6859C45.7126 61.3347 45.7979 61.496 45.9419 61.616C46.0886 61.7333 46.2686 61.792 46.4819 61.792C46.6339 61.792 46.7646 61.7613 46.8739 61.7C46.9859 61.636 47.0699 61.5533 47.1259 61.452L47.3579 61.588C47.2699 61.7293 47.1499 61.8413 46.9979 61.924C46.8459 62.0067 46.6726 62.048 46.4779 62.048C46.1632 62.048 45.9072 61.9493 45.7099 61.752C45.5126 61.5547 45.4139 61.304 45.4139 61C45.4139 60.7013 45.5112 60.452 45.7059 60.252C45.9006 60.052 46.1512 59.952 46.4579 59.952ZM46.4579 60.208C46.2499 60.208 46.0752 60.2707 45.9339 60.396C45.7952 60.5187 45.7126 60.6787 45.6859 60.876H47.1779C47.1512 60.6653 47.0699 60.5013 46.9339 60.384C46.7979 60.2667 46.6392 60.208 46.4579 60.208ZM48.8058 59.952C49.0485 59.952 49.2392 60.0267 49.3778 60.176C49.5192 60.3227 49.5898 60.5213 49.5898 60.772V62H49.3258V60.772C49.3258 60.5933 49.2778 60.4547 49.1818 60.356C49.0885 60.2573 48.9552 60.208 48.7818 60.208C48.5898 60.208 48.4338 60.2693 48.3138 60.392C48.1938 60.512 48.1338 60.6987 48.1338 60.952V62H47.8698V60H48.1338V60.312C48.2832 60.072 48.5072 59.952 48.8058 59.952ZM51.1603 60.256H50.5843V61.468C50.5843 61.5773 50.6056 61.656 50.6483 61.704C50.691 61.7493 50.755 61.7733 50.8403 61.776C50.9256 61.776 51.0323 61.7733 51.1603 61.768V62C50.8803 62.0427 50.6696 62.0227 50.5283 61.94C50.3896 61.8573 50.3203 61.7 50.3203 61.468V60.256H49.9003V60H50.3203V59.52L50.5843 59.44V60H51.1603V60.256ZM54.8483 61.908L54.6003 62.048L54.3043 61.732C54.0936 61.9427 53.819 62.048 53.4803 62.048C53.2056 62.048 52.983 61.9773 52.8123 61.836C52.6443 61.692 52.5603 61.4987 52.5603 61.256C52.5603 61.08 52.6056 60.9213 52.6963 60.78C52.787 60.6387 52.9216 60.5267 53.1003 60.444C52.9616 60.2867 52.8923 60.1107 52.8923 59.916C52.8923 59.684 52.9723 59.4987 53.1323 59.36C53.2923 59.2213 53.479 59.152 53.6923 59.152C53.871 59.152 54.0336 59.2027 54.1803 59.304C54.3296 59.4027 54.4363 59.5373 54.5003 59.708L54.2643 59.844C54.2243 59.7133 54.1523 59.6107 54.0483 59.536C53.947 59.4613 53.8296 59.424 53.6963 59.424C53.5523 59.424 53.4283 59.468 53.3243 59.556C53.223 59.644 53.1723 59.7587 53.1723 59.9C53.1723 59.9933 53.1936 60.0773 53.2363 60.152C53.2816 60.2267 53.347 60.3093 53.4323 60.4L54.2763 61.3C54.3536 61.148 54.4043 60.9707 54.4283 60.768L54.6763 60.912C54.6416 61.144 54.5736 61.3427 54.4723 61.508L54.8483 61.908ZM53.4723 61.776C53.739 61.776 53.9523 61.6933 54.1123 61.528L53.2883 60.652C53.131 60.7107 53.0163 60.7947 52.9443 60.904C52.875 61.0107 52.8403 61.1253 52.8403 61.248C52.8403 61.4107 52.8963 61.54 53.0083 61.636C53.123 61.7293 53.2776 61.776 53.4723 61.776ZM57.3012 59.952C57.5866 59.952 57.8292 60.0533 58.0292 60.256C58.2319 60.4587 58.3332 60.7067 58.3332 61C58.3332 61.2933 58.2319 61.5413 58.0292 61.744C57.8292 61.9467 57.5866 62.048 57.3012 62.048C56.9466 62.048 56.6772 61.9013 56.4932 61.608V62.8H56.2292V60H56.4932V60.392C56.6772 60.0987 56.9466 59.952 57.3012 59.952ZM56.7212 61.564C56.8732 61.716 57.0599 61.792 57.2812 61.792C57.5026 61.792 57.6892 61.716 57.8412 61.564C57.9932 61.4093 58.0692 61.2213 58.0692 61C58.0692 60.7787 57.9932 60.592 57.8412 60.44C57.6892 60.2853 57.5026 60.208 57.2812 60.208C57.0599 60.208 56.8732 60.2853 56.7212 60.44C56.5692 60.592 56.4932 60.7787 56.4932 61C56.4932 61.2213 56.5692 61.4093 56.7212 61.564ZM59.0362 60.332C59.1589 60.0893 59.3695 59.968 59.6682 59.968V60.224C59.4869 60.224 59.3362 60.2773 59.2162 60.384C59.0962 60.4907 59.0362 60.6587 59.0362 60.888V62H58.7722V60H59.0362V60.332ZM61.5849 61.748C61.3822 61.948 61.1342 62.048 60.8409 62.048C60.5476 62.048 60.2982 61.948 60.0929 61.748C59.8902 61.5453 59.7889 61.296 59.7889 61C59.7889 60.704 59.8902 60.456 60.0929 60.256C60.2982 60.0533 60.5476 59.952 60.8409 59.952C61.1342 59.952 61.3822 60.0533 61.5849 60.256C61.7902 60.456 61.8929 60.704 61.8929 61C61.8929 61.296 61.7902 61.5453 61.5849 61.748ZM60.2809 61.564C60.4329 61.716 60.6196 61.792 60.8409 61.792C61.0622 61.792 61.2489 61.716 61.4009 61.564C61.5529 61.4093 61.6289 61.2213 61.6289 61C61.6289 60.7787 61.5529 60.592 61.4009 60.44C61.2489 60.2853 61.0622 60.208 60.8409 60.208C60.6196 60.208 60.4329 60.2853 60.2809 60.44C60.1289 60.592 60.0529 60.7787 60.0529 61C60.0529 61.2213 60.1289 61.4093 60.2809 61.564ZM64.4667 59.952C64.6907 59.952 64.8707 60.024 65.0067 60.168C65.1454 60.312 65.2147 60.5067 65.2147 60.752V62H64.9507V60.752C64.9507 60.5787 64.9054 60.4453 64.8147 60.352C64.7267 60.256 64.6094 60.208 64.4627 60.208C64.2974 60.208 64.1627 60.264 64.0587 60.376C63.9574 60.4853 63.9067 60.6573 63.9067 60.892V62H63.6427V60.752C63.6427 60.576 63.6 60.4413 63.5147 60.348C63.432 60.2547 63.3187 60.208 63.1747 60.208C63.0147 60.208 62.8787 60.264 62.7667 60.376C62.6547 60.488 62.5987 60.66 62.5987 60.892V62H62.3347V60H62.5987V60.292C62.7427 60.0653 62.9467 59.952 63.2107 59.952C63.4987 59.952 63.7014 60.0733 63.8187 60.316C63.9627 60.0733 64.1787 59.952 64.4667 59.952ZM67.4013 61.748C67.1986 61.948 66.9506 62.048 66.6573 62.048C66.364 62.048 66.1146 61.948 65.9093 61.748C65.7066 61.5453 65.6053 61.296 65.6053 61C65.6053 60.704 65.7066 60.456 65.9093 60.256C66.1146 60.0533 66.364 59.952 66.6573 59.952C66.9506 59.952 67.1986 60.0533 67.4013 60.256C67.6066 60.456 67.7093 60.704 67.7093 61C67.7093 61.296 67.6066 61.5453 67.4013 61.748ZM66.0973 61.564C66.2493 61.716 66.436 61.792 66.6573 61.792C66.8786 61.792 67.0653 61.716 67.2173 61.564C67.3693 61.4093 67.4453 61.2213 67.4453 61C67.4453 60.7787 67.3693 60.592 67.2173 60.44C67.0653 60.2853 66.8786 60.208 66.6573 60.208C66.436 60.208 66.2493 60.2853 66.0973 60.44C65.9453 60.592 65.8693 60.7787 65.8693 61C65.8693 61.2213 65.9453 61.4093 66.0973 61.564ZM69.172 60.256H68.596V61.468C68.596 61.5773 68.6174 61.656 68.66 61.704C68.7027 61.7493 68.7667 61.7733 68.852 61.776C68.9374 61.776 69.044 61.7733 69.172 61.768V62C68.892 62.0427 68.6814 62.0227 68.54 61.94C68.4014 61.8573 68.332 61.7 68.332 61.468V60.256H67.912V60H68.332V59.52L68.596 59.44V60H69.172V60.256ZM69.88 59.52C69.8427 59.5573 69.7974 59.576 69.744 59.576C69.6907 59.576 69.6454 59.5573 69.608 59.52C69.5707 59.4827 69.552 59.4373 69.552 59.384C69.552 59.3307 69.5707 59.2853 69.608 59.248C69.6454 59.2107 69.6907 59.192 69.744 59.192C69.7974 59.192 69.8427 59.2107 69.88 59.248C69.9174 59.2853 69.936 59.3307 69.936 59.384C69.936 59.4373 69.9174 59.4827 69.88 59.52ZM69.612 62V60H69.876V62H69.612ZM72.1123 61.748C71.9096 61.948 71.6616 62.048 71.3683 62.048C71.0749 62.048 70.8256 61.948 70.6203 61.748C70.4176 61.5453 70.3163 61.296 70.3163 61C70.3163 60.704 70.4176 60.456 70.6203 60.256C70.8256 60.0533 71.0749 59.952 71.3683 59.952C71.6616 59.952 71.9096 60.0533 72.1123 60.256C72.3176 60.456 72.4203 60.704 72.4203 61C72.4203 61.296 72.3176 61.5453 72.1123 61.748ZM70.8083 61.564C70.9603 61.716 71.1469 61.792 71.3683 61.792C71.5896 61.792 71.7763 61.716 71.9283 61.564C72.0803 61.4093 72.1562 61.2213 72.1562 61C72.1562 60.7787 72.0803 60.592 71.9283 60.44C71.7763 60.2853 71.5896 60.208 71.3683 60.208C71.1469 60.208 70.9603 60.2853 70.8083 60.44C70.6563 60.592 70.5803 60.7787 70.5803 61C70.5803 61.2213 70.6563 61.4093 70.8083 61.564ZM73.798 59.952C74.0407 59.952 74.2314 60.0267 74.37 60.176C74.5114 60.3227 74.582 60.5213 74.582 60.772V62H74.318V60.772C74.318 60.5933 74.27 60.4547 74.174 60.356C74.0807 60.2573 73.9474 60.208 73.774 60.208C73.582 60.208 73.426 60.2693 73.306 60.392C73.186 60.512 73.126 60.6987 73.126 60.952V62H72.862V60H73.126V60.312C73.2754 60.072 73.4994 59.952 73.798 59.952ZM77.1645 59.952C77.4498 59.952 77.6925 60.0533 77.8925 60.256C78.0952 60.4587 78.1965 60.7067 78.1965 61C78.1965 61.2933 78.0952 61.5413 77.8925 61.744C77.6925 61.9467 77.4498 62.048 77.1645 62.048C76.8098 62.048 76.5405 61.9013 76.3565 61.608V62H76.0925V59.2H76.3565V60.392C76.5405 60.0987 76.8098 59.952 77.1645 59.952ZM76.5845 61.564C76.7365 61.716 76.9232 61.792 77.1445 61.792C77.3658 61.792 77.5525 61.716 77.7045 61.564C77.8565 61.4093 77.9325 61.2213 77.9325 61C77.9325 60.7787 77.8565 60.592 77.7045 60.44C77.5525 60.2853 77.3658 60.208 77.1445 60.208C76.9232 60.208 76.7365 60.2853 76.5845 60.44C76.4325 60.592 76.3565 60.7787 76.3565 61C76.3565 61.2213 76.4325 61.4093 76.5845 61.564ZM79.9973 60H80.2773L79.4213 62.184C79.344 62.3813 79.2333 62.536 79.0893 62.648C78.948 62.7627 78.7893 62.8133 78.6133 62.8V62.552C78.8533 62.5787 79.036 62.44 79.1613 62.136L79.2133 62.012L78.3173 60H78.5973L79.3493 61.676L79.9973 60ZM82.7164 59.2C83.0977 59.2 83.4124 59.336 83.6604 59.608C83.9111 59.8773 84.0364 60.208 84.0364 60.6C84.0364 60.992 83.9111 61.324 83.6604 61.596C83.4124 61.8653 83.0977 62 82.7164 62H81.6364V59.2H82.7164ZM82.7164 61.736C83.0231 61.736 83.2737 61.6267 83.4684 61.408C83.6657 61.1893 83.7644 60.92 83.7644 60.6C83.7644 60.28 83.6657 60.0107 83.4684 59.792C83.2737 59.5733 83.0231 59.464 82.7164 59.464H81.9164V61.736H82.7164ZM85.3993 59.952C85.6953 59.952 85.934 60.0573 86.1153 60.268C86.2993 60.476 86.3913 60.7227 86.3913 61.008C86.3913 61.0373 86.3886 61.0787 86.3833 61.132H84.6273C84.654 61.3347 84.7393 61.496 84.8833 61.616C85.03 61.7333 85.21 61.792 85.4233 61.792C85.5753 61.792 85.706 61.7613 85.8153 61.7C85.9273 61.636 86.0113 61.5533 86.0673 61.452L86.2993 61.588C86.2113 61.7293 86.0913 61.8413 85.9393 61.924C85.7873 62.0067 85.614 62.048 85.4193 62.048C85.1046 62.048 84.8486 61.9493 84.6513 61.752C84.454 61.5547 84.3553 61.304 84.3553 61C84.3553 60.7013 84.4526 60.452 84.6473 60.252C84.842 60.052 85.0926 59.952 85.3993 59.952ZM85.3993 60.208C85.1913 60.208 85.0166 60.2707 84.8753 60.396C84.7366 60.5187 84.654 60.6787 84.6273 60.876H86.1193C86.0926 60.6653 86.0113 60.5013 85.8753 60.384C85.7393 60.2667 85.5806 60.208 85.3993 60.208ZM87.7473 59.952C87.9899 59.952 88.1806 60.0267 88.3193 60.176C88.4606 60.3227 88.5312 60.5213 88.5312 60.772V62H88.2673V60.772C88.2673 60.5933 88.2193 60.4547 88.1233 60.356C88.0299 60.2573 87.8966 60.208 87.7233 60.208C87.5313 60.208 87.3753 60.2693 87.2553 60.392C87.1353 60.512 87.0753 60.6987 87.0753 60.952V62H86.8113V60H87.0753V60.312C87.2246 60.072 87.4486 59.952 87.7473 59.952ZM89.3097 59.52C89.2724 59.5573 89.2271 59.576 89.1737 59.576C89.1204 59.576 89.0751 59.5573 89.0377 59.52C89.0004 59.4827 88.9817 59.4373 88.9817 59.384C88.9817 59.3307 89.0004 59.2853 89.0377 59.248C89.0751 59.2107 89.1204 59.192 89.1737 59.192C89.2271 59.192 89.2724 59.2107 89.3097 59.248C89.3471 59.2853 89.3657 59.3307 89.3657 59.384C89.3657 59.4373 89.3471 59.4827 89.3097 59.52ZM89.0417 62V60H89.3057V62H89.0417ZM90.0739 60.524C90.0739 60.6147 90.1139 60.6867 90.1939 60.74C90.2739 60.7933 90.3713 60.8347 90.4859 60.864C90.6006 60.8933 90.7153 60.9267 90.8299 60.964C90.9446 60.9987 91.0419 61.0587 91.1219 61.144C91.2019 61.2267 91.2419 61.336 91.2419 61.472C91.2419 61.6427 91.1739 61.7813 91.0379 61.888C90.9046 61.9947 90.7313 62.048 90.5179 62.048C90.3259 62.048 90.1619 62.0053 90.0259 61.92C89.8926 61.8347 89.7993 61.724 89.7459 61.588L89.9699 61.456C90.0073 61.56 90.0739 61.6427 90.1699 61.704C90.2686 61.7627 90.3846 61.792 90.5179 61.792C90.6486 61.792 90.7579 61.7667 90.8459 61.716C90.9339 61.6627 90.9779 61.5813 90.9779 61.472C90.9779 61.3813 90.9379 61.3093 90.8579 61.256C90.7779 61.2027 90.6806 61.1613 90.5659 61.132C90.4513 61.1027 90.3366 61.0707 90.2219 61.036C90.1073 60.9987 90.0099 60.9387 89.9299 60.856C89.8499 60.7707 89.8099 60.66 89.8099 60.524C89.8099 60.3613 89.8739 60.2253 90.0019 60.116C90.1326 60.0067 90.2966 59.952 90.4939 59.952C90.6566 59.952 90.7993 59.9893 90.9219 60.064C91.0446 60.136 91.1353 60.2347 91.1939 60.36L90.9739 60.488C90.8966 60.3013 90.7366 60.208 90.4939 60.208C90.3793 60.208 90.2806 60.236 90.1979 60.292C90.1153 60.3453 90.0739 60.4227 90.0739 60.524ZM94.6823 62H94.3143L93.0023 60.644V62H92.7223V59.2H93.0023V60.48L94.2743 59.2H94.6423L93.2983 60.56L94.6823 62ZM96.3325 60H96.5965V62H96.3325V61.688C96.1832 61.928 95.9592 62.048 95.6605 62.048C95.4179 62.048 95.2259 61.9747 95.0845 61.828C94.9459 61.6787 94.8765 61.4787 94.8765 61.228V60H95.1405V61.228C95.1405 61.4067 95.1872 61.5453 95.2805 61.644C95.3765 61.7427 95.5112 61.792 95.6845 61.792C95.8765 61.792 96.0325 61.732 96.1525 61.612C96.2725 61.4893 96.3325 61.3013 96.3325 61.048V60ZM98.091 59.952C98.3337 59.952 98.5243 60.0267 98.663 60.176C98.8043 60.3227 98.875 60.5213 98.875 60.772V62H98.611V60.772C98.611 60.5933 98.563 60.4547 98.467 60.356C98.3737 60.2573 98.2403 60.208 98.067 60.208C97.875 60.208 97.719 60.2693 97.599 60.392C97.479 60.512 97.419 60.6987 97.419 60.952V62H97.155V60H97.419V60.312C97.5683 60.072 97.7923 59.952 98.091 59.952ZM99.6535 59.52C99.6161 59.5573 99.5708 59.576 99.5175 59.576C99.4641 59.576 99.4188 59.5573 99.3815 59.52C99.3441 59.4827 99.3255 59.4373 99.3255 59.384C99.3255 59.3307 99.3441 59.2853 99.3815 59.248C99.4188 59.2107 99.4641 59.192 99.5175 59.192C99.5708 59.192 99.6161 59.2107 99.6535 59.248C99.6908 59.2853 99.7095 59.3307 99.7095 59.384C99.7095 59.4373 99.6908 59.4827 99.6535 59.52ZM99.3855 62V60H99.6495V62H99.3855ZM101.27 60.256H100.694V61.468C100.694 61.5773 100.715 61.656 100.758 61.704C100.8 61.7493 100.864 61.7733 100.95 61.776C101.035 61.776 101.142 61.7733 101.27 61.768V62C100.99 62.0427 100.779 62.0227 100.638 61.94C100.499 61.8573 100.43 61.7 100.43 61.468V60.256H100.01V60H100.43V59.52L100.694 59.44V60H101.27V60.256ZM101.797 60.524C101.797 60.6147 101.837 60.6867 101.917 60.74C101.997 60.7933 102.094 60.8347 102.209 60.864C102.323 60.8933 102.438 60.9267 102.553 60.964C102.667 60.9987 102.765 61.0587 102.845 61.144C102.925 61.2267 102.965 61.336 102.965 61.472C102.965 61.6427 102.897 61.7813 102.761 61.888C102.627 61.9947 102.454 62.048 102.241 62.048C102.049 62.048 101.885 62.0053 101.749 61.92C101.615 61.8347 101.522 61.724 101.469 61.588L101.693 61.456C101.73 61.56 101.797 61.6427 101.893 61.704C101.991 61.7627 102.107 61.792 102.241 61.792C102.371 61.792 102.481 61.7667 102.569 61.716C102.657 61.6627 102.701 61.5813 102.701 61.472C102.701 61.3813 102.661 61.3093 102.581 61.256C102.501 61.2027 102.403 61.1613 102.289 61.132C102.174 61.1027 102.059 61.0707 101.945 61.036C101.83 60.9987 101.733 60.9387 101.653 60.856C101.573 60.7707 101.533 60.66 101.533 60.524C101.533 60.3613 101.597 60.2253 101.725 60.116C101.855 60.0067 102.019 59.952 102.217 59.952C102.379 59.952 102.522 59.9893 102.645 60.064C102.767 60.136 102.858 60.2347 102.917 60.36L102.697 60.488C102.619 60.3013 102.459 60.208 102.217 60.208C102.102 60.208 102.003 60.236 101.921 60.292C101.838 60.3453 101.797 60.4227 101.797 60.524ZM104.743 60H105.023L104.167 62.184C104.09 62.3813 103.979 62.536 103.835 62.648C103.694 62.7627 103.535 62.8133 103.359 62.8V62.552C103.599 62.5787 103.782 62.44 103.907 62.136L103.959 62.012L103.063 60H103.343L104.095 61.676L104.743 60ZM106.279 59.952C106.521 59.952 106.712 60.0267 106.851 60.176C106.992 60.3227 107.062 60.5213 107.062 60.772V62H106.799V60.772C106.799 60.5933 106.751 60.4547 106.655 60.356C106.561 60.2573 106.428 60.208 106.255 60.208C106.063 60.208 105.907 60.2693 105.787 60.392C105.667 60.512 105.607 60.6987 105.607 60.952V62H105.343V60H105.607V60.312C105.756 60.072 105.98 59.952 106.279 59.952ZM107.909 61.976C107.866 62.0187 107.814 62.04 107.753 62.04C107.692 62.04 107.64 62.0187 107.597 61.976C107.554 61.9333 107.533 61.8813 107.533 61.82C107.533 61.7587 107.554 61.7067 107.597 61.664C107.64 61.6213 107.692 61.6 107.753 61.6C107.814 61.6 107.866 61.6213 107.909 61.664C107.952 61.7067 107.973 61.7587 107.973 61.82C107.973 61.8813 107.952 61.9333 107.909 61.976ZM2.34 66.2L1.328 67.852V69H1.048V67.844L0.04 66.2H0.356L1.192 67.572L2.024 66.2H2.34ZM3.93647 68.748C3.7338 68.948 3.4858 69.048 3.19247 69.048C2.89914 69.048 2.6498 68.948 2.44447 68.748C2.2418 68.5453 2.14047 68.296 2.14047 68C2.14047 67.704 2.2418 67.456 2.44447 67.256C2.6498 67.0533 2.89914 66.952 3.19247 66.952C3.4858 66.952 3.7338 67.0533 3.93647 67.256C4.1418 67.456 4.24447 67.704 4.24447 68C4.24447 68.296 4.1418 68.5453 3.93647 68.748ZM2.63247 68.564C2.78447 68.716 2.97114 68.792 3.19247 68.792C3.4138 68.792 3.60047 68.716 3.75247 68.564C3.90447 68.4093 3.98047 68.2213 3.98047 68C3.98047 67.7787 3.90447 67.592 3.75247 67.44C3.60047 67.2853 3.4138 67.208 3.19247 67.208C2.97114 67.208 2.78447 67.2853 2.63247 67.44C2.48047 67.592 2.40447 67.7787 2.40447 68C2.40447 68.2213 2.48047 68.4093 2.63247 68.564ZM6.09425 67H6.35825V69H6.09425V68.688C5.94492 68.928 5.72092 69.048 5.42225 69.048C5.17958 69.048 4.98758 68.9747 4.84625 68.828C4.70758 68.6787 4.63825 68.4787 4.63825 68.228V67H4.90225V68.228C4.90225 68.4067 4.94892 68.5453 5.04225 68.644C5.13825 68.7427 5.27292 68.792 5.44625 68.792C5.63825 68.792 5.79425 68.732 5.91425 68.612C6.03425 68.4893 6.09425 68.3013 6.09425 68.048V67ZM7.18072 67.332C7.30339 67.0893 7.51405 66.968 7.81272 66.968V67.224C7.63139 67.224 7.48072 67.2773 7.36072 67.384C7.24072 67.4907 7.18072 67.6587 7.18072 67.888V69H6.91672V67H7.18072V67.332ZM10.2465 66.952C10.5319 66.952 10.7745 67.0533 10.9745 67.256C11.1772 67.4587 11.2785 67.7067 11.2785 68C11.2785 68.2933 11.1772 68.5413 10.9745 68.744C10.7745 68.9467 10.5319 69.048 10.2465 69.048C9.89186 69.048 9.62253 68.9013 9.43853 68.608V69H9.17453V66.2H9.43853V67.392C9.62253 67.0987 9.89186 66.952 10.2465 66.952ZM9.66653 68.564C9.81853 68.716 10.0052 68.792 10.2265 68.792C10.4479 68.792 10.6345 68.716 10.7865 68.564C10.9385 68.4093 11.0145 68.2213 11.0145 68C11.0145 67.7787 10.9385 67.592 10.7865 67.44C10.6345 67.2853 10.4479 67.208 10.2265 67.208C10.0052 67.208 9.81853 67.2853 9.66653 67.44C9.51453 67.592 9.43853 67.7787 9.43853 68C9.43853 68.2213 9.51453 68.4093 9.66653 68.564ZM12.6415 66.952C12.9375 66.952 13.1762 67.0573 13.3575 67.268C13.5415 67.476 13.6335 67.7227 13.6335 68.008C13.6335 68.0373 13.6308 68.0787 13.6255 68.132H11.8695C11.8962 68.3347 11.9815 68.496 12.1255 68.616C12.2722 68.7333 12.4522 68.792 12.6655 68.792C12.8175 68.792 12.9482 68.7613 13.0575 68.7C13.1695 68.636 13.2535 68.5533 13.3095 68.452L13.5415 68.588C13.4535 68.7293 13.3335 68.8413 13.1815 68.924C13.0295 69.0067 12.8562 69.048 12.6615 69.048C12.3468 69.048 12.0908 68.9493 11.8935 68.752C11.6962 68.5547 11.5975 68.304 11.5975 68C11.5975 67.7013 11.6948 67.452 11.8895 67.252C12.0842 67.052 12.3348 66.952 12.6415 66.952ZM12.6415 67.208C12.4335 67.208 12.2588 67.2707 12.1175 67.396C11.9788 67.5187 11.8962 67.6787 11.8695 67.876H13.3615C13.3348 67.6653 13.2535 67.5013 13.1175 67.384C12.9815 67.2667 12.8228 67.208 12.6415 67.208ZM14.1833 67.524C14.1833 67.6147 14.2233 67.6867 14.3033 67.74C14.3833 67.7933 14.4806 67.8347 14.5953 67.864C14.71 67.8933 14.8246 67.9267 14.9393 67.964C15.054 67.9987 15.1513 68.0587 15.2313 68.144C15.3113 68.2267 15.3513 68.336 15.3513 68.472C15.3513 68.6427 15.2833 68.7813 15.1473 68.888C15.014 68.9947 14.8406 69.048 14.6273 69.048C14.4353 69.048 14.2713 69.0053 14.1353 68.92C14.002 68.8347 13.9086 68.724 13.8553 68.588L14.0793 68.456C14.1166 68.56 14.1833 68.6427 14.2793 68.704C14.378 68.7627 14.494 68.792 14.6273 68.792C14.758 68.792 14.8673 68.7667 14.9553 68.716C15.0433 68.6627 15.0873 68.5813 15.0873 68.472C15.0873 68.3813 15.0473 68.3093 14.9673 68.256C14.8873 68.2027 14.79 68.1613 14.6753 68.132C14.5606 68.1027 14.446 68.0707 14.3313 68.036C14.2166 67.9987 14.1193 67.9387 14.0393 67.856C13.9593 67.7707 13.9193 67.66 13.9193 67.524C13.9193 67.3613 13.9833 67.2253 14.1113 67.116C14.242 67.0067 14.406 66.952 14.6033 66.952C14.766 66.952 14.9086 66.9893 15.0313 67.064C15.154 67.136 15.2446 67.2347 15.3033 67.36L15.0833 67.488C15.006 67.3013 14.846 67.208 14.6033 67.208C14.4886 67.208 14.39 67.236 14.3073 67.292C14.2246 67.3453 14.1833 67.4227 14.1833 67.524ZM16.7736 67.256H16.1976V68.468C16.1976 68.5773 16.2189 68.656 16.2616 68.704C16.3043 68.7493 16.3683 68.7733 16.4536 68.776C16.5389 68.776 16.6456 68.7733 16.7736 68.768V69C16.4936 69.0427 16.2829 69.0227 16.1416 68.94C16.0029 68.8573 15.9336 68.7 15.9336 68.468V67.256H15.5136V67H15.9336V66.52L16.1976 66.44V67H16.7736V67.256ZM19.9336 66.2H20.1976V69H19.9336V68.608C19.7496 68.9013 19.4803 69.048 19.1256 69.048C18.8403 69.048 18.5963 68.9467 18.3936 68.744C18.1936 68.5413 18.0936 68.2933 18.0936 68C18.0936 67.7067 18.1936 67.4587 18.3936 67.256C18.5963 67.0533 18.8403 66.952 19.1256 66.952C19.4803 66.952 19.7496 67.0987 19.9336 67.392V66.2ZM18.5856 68.564C18.7376 68.716 18.9243 68.792 19.1456 68.792C19.3669 68.792 19.5536 68.716 19.7056 68.564C19.8576 68.4093 19.9336 68.2213 19.9336 68C19.9336 67.7787 19.8576 67.592 19.7056 67.44C19.5536 67.2853 19.3669 67.208 19.1456 67.208C18.9243 67.208 18.7376 67.2853 18.5856 67.44C18.4336 67.592 18.3576 67.7787 18.3576 68C18.3576 68.2213 18.4336 68.4093 18.5856 68.564ZM21.0246 66.52C20.9872 66.5573 20.9419 66.576 20.8886 66.576C20.8352 66.576 20.7899 66.5573 20.7526 66.52C20.7152 66.4827 20.6966 66.4373 20.6966 66.384C20.6966 66.3307 20.7152 66.2853 20.7526 66.248C20.7899 66.2107 20.8352 66.192 20.8886 66.192C20.9419 66.192 20.9872 66.2107 21.0246 66.248C21.0619 66.2853 21.0806 66.3307 21.0806 66.384C21.0806 66.4373 21.0619 66.4827 21.0246 66.52ZM20.7566 69V67H21.0206V69H20.7566ZM23.3008 67H23.5648V68.92C23.5648 69.208 23.4661 69.4347 23.2688 69.6C23.0714 69.7653 22.8354 69.848 22.5608 69.848C22.0914 69.848 21.7754 69.6853 21.6128 69.36L21.8448 69.228C21.9648 69.4707 22.2034 69.592 22.5608 69.592C22.7901 69.592 22.9701 69.5307 23.1008 69.408C23.2341 69.288 23.3008 69.1253 23.3008 68.92V68.608C23.1168 68.9013 22.8474 69.048 22.4928 69.048C22.2074 69.048 21.9634 68.9467 21.7608 68.744C21.5608 68.5413 21.4608 68.2933 21.4608 68C21.4608 67.7067 21.5608 67.4587 21.7608 67.256C21.9634 67.0533 22.2074 66.952 22.4928 66.952C22.8474 66.952 23.1168 67.0987 23.3008 67.392V67ZM21.9528 68.564C22.1048 68.716 22.2914 68.792 22.5128 68.792C22.7341 68.792 22.9208 68.716 23.0728 68.564C23.2248 68.4093 23.3008 68.2213 23.3008 68C23.3008 67.7787 23.2248 67.592 23.0728 67.44C22.9208 67.2853 22.7341 67.208 22.5128 67.208C22.2914 67.208 22.1048 67.2853 21.9528 67.44C21.8008 67.592 21.7248 67.7787 21.7248 68C21.7248 68.2213 21.8008 68.4093 21.9528 68.564ZM24.3918 66.52C24.3544 66.5573 24.3091 66.576 24.2558 66.576C24.2024 66.576 24.1571 66.5573 24.1198 66.52C24.0824 66.4827 24.0638 66.4373 24.0638 66.384C24.0638 66.3307 24.0824 66.2853 24.1198 66.248C24.1571 66.2107 24.2024 66.192 24.2558 66.192C24.3091 66.192 24.3544 66.2107 24.3918 66.248C24.4291 66.2853 24.4478 66.3307 24.4478 66.384C24.4478 66.4373 24.4291 66.4827 24.3918 66.52ZM24.1238 69V67H24.3878V69H24.1238ZM26.008 67.256H25.432V68.468C25.432 68.5773 25.4533 68.656 25.496 68.704C25.5386 68.7493 25.6026 68.7733 25.688 68.776C25.7733 68.776 25.88 68.7733 26.008 68.768V69C25.728 69.0427 25.5173 69.0227 25.376 68.94C25.2373 68.8573 25.168 68.7 25.168 68.468V67.256H24.748V67H25.168V66.52L25.432 66.44V67H26.008V67.256ZM28.0469 67H28.3109V69H28.0469V68.608C27.8629 68.9013 27.5935 69.048 27.2389 69.048C26.9535 69.048 26.7095 68.9467 26.5069 68.744C26.3069 68.5413 26.2069 68.2933 26.2069 68C26.2069 67.7067 26.3069 67.4587 26.5069 67.256C26.7095 67.0533 26.9535 66.952 27.2389 66.952C27.5935 66.952 27.8629 67.0987 28.0469 67.392V67ZM26.6989 68.564C26.8509 68.716 27.0375 68.792 27.2589 68.792C27.4802 68.792 27.6669 68.716 27.8189 68.564C27.9709 68.4093 28.0469 68.2213 28.0469 68C28.0469 67.7787 27.9709 67.592 27.8189 67.44C27.6669 67.2853 27.4802 67.208 27.2589 67.208C27.0375 67.208 26.8509 67.2853 26.6989 67.44C26.5469 67.592 26.4709 67.7787 26.4709 68C26.4709 68.2213 26.5469 68.4093 26.6989 68.564ZM28.8698 69V66.08H29.1338V69H28.8698ZM31.6181 66.952C31.9141 66.952 32.1527 67.0573 32.3341 67.268C32.5181 67.476 32.6101 67.7227 32.6101 68.008C32.6101 68.0373 32.6074 68.0787 32.6021 68.132H30.8461C30.8727 68.3347 30.9581 68.496 31.1021 68.616C31.2487 68.7333 31.4287 68.792 31.6421 68.792C31.7941 68.792 31.9247 68.7613 32.0341 68.7C32.1461 68.636 32.2301 68.5533 32.2861 68.452L32.5181 68.588C32.4301 68.7293 32.3101 68.8413 32.1581 68.924C32.0061 69.0067 31.8327 69.048 31.6381 69.048C31.3234 69.048 31.0674 68.9493 30.8701 68.752C30.6727 68.5547 30.5741 68.304 30.5741 68C30.5741 67.7013 30.6714 67.452 30.8661 67.252C31.0607 67.052 31.3114 66.952 31.6181 66.952ZM31.6181 67.208C31.4101 67.208 31.2354 67.2707 31.0941 67.396C30.9554 67.5187 30.8727 67.6787 30.8461 67.876H32.3381C32.3114 67.6653 32.2301 67.5013 32.0941 67.384C31.9581 67.2667 31.7994 67.208 31.6181 67.208ZM34.6319 69H34.3159L33.6919 68.176L33.0679 69H32.7519L33.5359 67.964L32.8039 67H33.1199L33.6919 67.756L34.2639 67H34.5799L33.8519 67.964L34.6319 69ZM36.0629 66.952C36.3483 66.952 36.5909 67.0533 36.7909 67.256C36.9936 67.4587 37.0949 67.7067 37.0949 68C37.0949 68.2933 36.9936 68.5413 36.7909 68.744C36.5909 68.9467 36.3483 69.048 36.0629 69.048C35.7083 69.048 35.4389 68.9013 35.2549 68.608V69.8H34.9909V67H35.2549V67.392C35.4389 67.0987 35.7083 66.952 36.0629 66.952ZM35.4829 68.564C35.6349 68.716 35.8216 68.792 36.0429 68.792C36.2643 68.792 36.4509 68.716 36.6029 68.564C36.7549 68.4093 36.8309 68.2213 36.8309 68C36.8309 67.7787 36.7549 67.592 36.6029 67.44C36.4509 67.2853 36.2643 67.208 36.0429 67.208C35.8216 67.208 35.6349 67.2853 35.4829 67.44C35.3309 67.592 35.2549 67.7787 35.2549 68C35.2549 68.2213 35.3309 68.4093 35.4829 68.564ZM38.4579 66.952C38.7539 66.952 38.9926 67.0573 39.1739 67.268C39.3579 67.476 39.4499 67.7227 39.4499 68.008C39.4499 68.0373 39.4472 68.0787 39.4419 68.132H37.6859C37.7126 68.3347 37.7979 68.496 37.9419 68.616C38.0886 68.7333 38.2686 68.792 38.4819 68.792C38.6339 68.792 38.7646 68.7613 38.8739 68.7C38.9859 68.636 39.0699 68.5533 39.1259 68.452L39.3579 68.588C39.2699 68.7293 39.1499 68.8413 38.9979 68.924C38.8459 69.0067 38.6726 69.048 38.4779 69.048C38.1632 69.048 37.9072 68.9493 37.7099 68.752C37.5126 68.5547 37.4139 68.304 37.4139 68C37.4139 67.7013 37.5112 67.452 37.7059 67.252C37.9006 67.052 38.1512 66.952 38.4579 66.952ZM38.4579 67.208C38.2499 67.208 38.0752 67.2707 37.9339 67.396C37.7952 67.5187 37.7126 67.6787 37.6859 67.876H39.1779C39.1512 67.6653 39.0699 67.5013 38.9339 67.384C38.7979 67.2667 38.6392 67.208 38.4579 67.208ZM40.1338 67.332C40.2565 67.0893 40.4672 66.968 40.7658 66.968V67.224C40.5845 67.224 40.4338 67.2773 40.3138 67.384C40.1938 67.4907 40.1338 67.6587 40.1338 67.888V69H39.8698V67H40.1338V67.332ZM41.3957 66.52C41.3583 66.5573 41.313 66.576 41.2597 66.576C41.2063 66.576 41.161 66.5573 41.1237 66.52C41.0863 66.4827 41.0677 66.4373 41.0677 66.384C41.0677 66.3307 41.0863 66.2853 41.1237 66.248C41.161 66.2107 41.2063 66.192 41.2597 66.192C41.313 66.192 41.3583 66.2107 41.3957 66.248C41.433 66.2853 41.4517 66.3307 41.4517 66.384C41.4517 66.4373 41.433 66.4827 41.3957 66.52ZM41.1277 69V67H41.3917V69H41.1277ZM42.8759 66.952C43.1719 66.952 43.4105 67.0573 43.5919 67.268C43.7759 67.476 43.8679 67.7227 43.8679 68.008C43.8679 68.0373 43.8652 68.0787 43.8599 68.132H42.1039C42.1305 68.3347 42.2159 68.496 42.3599 68.616C42.5065 68.7333 42.6865 68.792 42.8999 68.792C43.0519 68.792 43.1825 68.7613 43.2919 68.7C43.4039 68.636 43.4879 68.5533 43.5439 68.452L43.7759 68.588C43.6879 68.7293 43.5679 68.8413 43.4159 68.924C43.2639 69.0067 43.0905 69.048 42.8959 69.048C42.5812 69.048 42.3252 68.9493 42.1279 68.752C41.9305 68.5547 41.8319 68.304 41.8319 68C41.8319 67.7013 41.9292 67.452 42.1239 67.252C42.3185 67.052 42.5692 66.952 42.8759 66.952ZM42.8759 67.208C42.6679 67.208 42.4932 67.2707 42.3519 67.396C42.2132 67.5187 42.1305 67.6787 42.1039 67.876H43.5959C43.5692 67.6653 43.4879 67.5013 43.3519 67.384C43.2159 67.2667 43.0572 67.208 42.8759 67.208ZM45.2238 66.952C45.4665 66.952 45.6571 67.0267 45.7958 67.176C45.9371 67.3227 46.0078 67.5213 46.0078 67.772V69H45.7438V67.772C45.7438 67.5933 45.6958 67.4547 45.5998 67.356C45.5065 67.2573 45.3731 67.208 45.1998 67.208C45.0078 67.208 44.8518 67.2693 44.7318 67.392C44.6118 67.512 44.5518 67.6987 44.5518 67.952V69H44.2878V67H44.5518V67.312C44.7011 67.072 44.9251 66.952 45.2238 66.952ZM47.4503 69.048C47.1489 69.048 46.8983 68.948 46.6983 68.748C46.4983 68.5453 46.3983 68.296 46.3983 68C46.3983 67.704 46.4983 67.456 46.6983 67.256C46.8983 67.0533 47.1489 66.952 47.4503 66.952C47.6476 66.952 47.8249 67 47.9823 67.096C48.1396 67.1893 48.2543 67.316 48.3263 67.476L48.1103 67.6C48.0569 67.48 47.9703 67.3853 47.8503 67.316C47.7329 67.244 47.5996 67.208 47.4503 67.208C47.2289 67.208 47.0423 67.2853 46.8903 67.44C46.7383 67.592 46.6623 67.7787 46.6623 68C46.6623 68.2213 46.7383 68.4093 46.8903 68.564C47.0423 68.716 47.2289 68.792 47.4503 68.792C47.5996 68.792 47.7329 68.7573 47.8503 68.688C47.9676 68.616 48.0596 68.52 48.1263 68.4L48.3463 68.528C48.2636 68.688 48.1423 68.8147 47.9823 68.908C47.8223 69.0013 47.6449 69.048 47.4503 69.048ZM49.6298 66.952C49.9258 66.952 50.1644 67.0573 50.3458 67.268C50.5298 67.476 50.6218 67.7227 50.6218 68.008C50.6218 68.0373 50.6191 68.0787 50.6138 68.132H48.8578C48.8844 68.3347 48.9698 68.496 49.1138 68.616C49.2604 68.7333 49.4404 68.792 49.6538 68.792C49.8058 68.792 49.9364 68.7613 50.0458 68.7C50.1578 68.636 50.2418 68.5533 50.2978 68.452L50.5298 68.588C50.4418 68.7293 50.3218 68.8413 50.1698 68.924C50.0178 69.0067 49.8444 69.048 49.6498 69.048C49.3351 69.048 49.0791 68.9493 48.8818 68.752C48.6844 68.5547 48.5858 68.304 48.5858 68C48.5858 67.7013 48.6831 67.452 48.8778 67.252C49.0724 67.052 49.3231 66.952 49.6298 66.952ZM49.6298 67.208C49.4218 67.208 49.2471 67.2707 49.1058 67.396C48.9671 67.5187 48.8844 67.6787 48.8578 67.876H50.3498C50.3231 67.6653 50.2418 67.5013 50.1058 67.384C49.9698 67.2667 49.8111 67.208 49.6298 67.208ZM54.4497 67H54.7217L54.1057 69H53.8177L53.3017 67.388L52.7857 69H52.4977L51.8817 67H52.1537L52.6457 68.66L53.1697 67H53.4337L53.9577 68.66L54.4497 67ZM55.3878 66.52C55.3505 66.5573 55.3052 66.576 55.2518 66.576C55.1985 66.576 55.1532 66.5573 55.1158 66.52C55.0785 66.4827 55.0598 66.4373 55.0598 66.384C55.0598 66.3307 55.0785 66.2853 55.1158 66.248C55.1532 66.2107 55.1985 66.192 55.2518 66.192C55.3052 66.192 55.3505 66.2107 55.3878 66.248C55.4252 66.2853 55.4438 66.3307 55.4438 66.384C55.4438 66.4373 55.4252 66.4827 55.3878 66.52ZM55.1198 69V67H55.3838V69H55.1198ZM57.0041 67.256H56.4281V68.468C56.4281 68.5773 56.4494 68.656 56.4921 68.704C56.5347 68.7493 56.5987 68.7733 56.6841 68.776C56.7694 68.776 56.8761 68.7733 57.0041 68.768V69C56.7241 69.0427 56.5134 69.0227 56.3721 68.94C56.2334 68.8573 56.1641 68.7 56.1641 68.468V67.256H55.7441V67H56.1641V66.52L56.4281 66.44V67H57.0041V67.256ZM58.3801 66.952C58.6227 66.952 58.8134 67.0267 58.9521 67.176C59.0934 67.3227 59.1641 67.5213 59.1641 67.772V69H58.9001V67.772C58.9001 67.5933 58.8521 67.4547 58.7561 67.356C58.6627 67.2573 58.5294 67.208 58.3561 67.208C58.1641 67.208 58.0081 67.2693 57.8881 67.392C57.7681 67.512 57.7081 67.6987 57.7081 67.952V69H57.4441V66.2H57.7081V67.312C57.8574 67.072 58.0814 66.952 58.3801 66.952ZM62.8065 66.952C63.0305 66.952 63.2105 67.024 63.3465 67.168C63.4852 67.312 63.5545 67.5067 63.5545 67.752V69H63.2905V67.752C63.2905 67.5787 63.2452 67.4453 63.1545 67.352C63.0665 67.256 62.9492 67.208 62.8025 67.208C62.6372 67.208 62.5025 67.264 62.3985 67.376C62.2972 67.4853 62.2465 67.6573 62.2465 67.892V69H61.9825V67.752C61.9825 67.576 61.9399 67.4413 61.8545 67.348C61.7719 67.2547 61.6585 67.208 61.5145 67.208C61.3545 67.208 61.2185 67.264 61.1065 67.376C60.9945 67.488 60.9385 67.66 60.9385 67.892V69H60.6745V67H60.9385V67.292C61.0825 67.0653 61.2865 66.952 61.5505 66.952C61.8385 66.952 62.0412 67.0733 62.1585 67.316C62.3025 67.0733 62.5185 66.952 62.8065 66.952ZM65.7412 68.748C65.5385 68.948 65.2905 69.048 64.9972 69.048C64.7038 69.048 64.4545 68.948 64.2492 68.748C64.0465 68.5453 63.9452 68.296 63.9452 68C63.9452 67.704 64.0465 67.456 64.2492 67.256C64.4545 67.0533 64.7038 66.952 64.9972 66.952C65.2905 66.952 65.5385 67.0533 65.7412 67.256C65.9465 67.456 66.0492 67.704 66.0492 68C66.0492 68.296 65.9465 68.5453 65.7412 68.748ZM64.4372 68.564C64.5892 68.716 64.7758 68.792 64.9972 68.792C65.2185 68.792 65.4052 68.716 65.5572 68.564C65.7092 68.4093 65.7852 68.2213 65.7852 68C65.7852 67.7787 65.7092 67.592 65.5572 67.44C65.4052 67.2853 65.2185 67.208 64.9972 67.208C64.7758 67.208 64.5892 67.2853 64.4372 67.44C64.2852 67.592 64.2092 67.7787 64.2092 68C64.2092 68.2213 64.2852 68.4093 64.4372 68.564ZM67.5119 67.256H66.9359V68.468C66.9359 68.5773 66.9572 68.656 66.9999 68.704C67.0425 68.7493 67.1065 68.7733 67.1919 68.776C67.2772 68.776 67.3839 68.7733 67.5119 68.768V69C67.2319 69.0427 67.0212 69.0227 66.8799 68.94C66.7412 68.8573 66.6719 68.7 66.6719 68.468V67.256H66.2519V67H66.6719V66.52L66.9359 66.44V67H67.5119V67.256ZM68.2199 66.52C68.1825 66.5573 68.1372 66.576 68.0839 66.576C68.0305 66.576 67.9852 66.5573 67.9479 66.52C67.9105 66.4827 67.8919 66.4373 67.8919 66.384C67.8919 66.3307 67.9105 66.2853 67.9479 66.248C67.9852 66.2107 68.0305 66.192 68.0839 66.192C68.1372 66.192 68.1825 66.2107 68.2199 66.248C68.2572 66.2853 68.2759 66.3307 68.2759 66.384C68.2759 66.4373 68.2572 66.4827 68.2199 66.52ZM67.9519 69V67H68.2159V69H67.9519ZM70.2161 67H70.4961L69.6761 69H69.3561L68.5361 67H68.8161L69.5161 68.724L70.2161 67ZM71.661 66.952C71.957 66.952 72.1957 67.0573 72.377 67.268C72.561 67.476 72.653 67.7227 72.653 68.008C72.653 68.0373 72.6504 68.0787 72.645 68.132H70.889C70.9157 68.3347 71.001 68.496 71.145 68.616C71.2917 68.7333 71.4717 68.792 71.685 68.792C71.837 68.792 71.9677 68.7613 72.077 68.7C72.189 68.636 72.273 68.5533 72.329 68.452L72.561 68.588C72.473 68.7293 72.353 68.8413 72.201 68.924C72.049 69.0067 71.8757 69.048 71.681 69.048C71.3664 69.048 71.1104 68.9493 70.913 68.752C70.7157 68.5547 70.617 68.304 70.617 68C70.617 67.7013 70.7144 67.452 70.909 67.252C71.1037 67.052 71.3544 66.952 71.661 66.952ZM71.661 67.208C71.453 67.208 71.2784 67.2707 71.137 67.396C70.9984 67.5187 70.9157 67.6787 70.889 67.876H72.381C72.3544 67.6653 72.273 67.5013 72.137 67.384C72.001 67.2667 71.8424 67.208 71.661 67.208ZM75.793 67H76.057V69H75.793V68.608C75.609 68.9013 75.3396 69.048 74.985 69.048C74.6996 69.048 74.4556 68.9467 74.253 68.744C74.053 68.5413 73.953 68.2933 73.953 68C73.953 67.7067 74.053 67.4587 74.253 67.256C74.4556 67.0533 74.6996 66.952 74.985 66.952C75.3396 66.952 75.609 67.0987 75.793 67.392V67ZM74.445 68.564C74.597 68.716 74.7836 68.792 75.005 68.792C75.2263 68.792 75.413 68.716 75.565 68.564C75.717 68.4093 75.793 68.2213 75.793 68C75.793 67.7787 75.717 67.592 75.565 67.44C75.413 67.2853 75.2263 67.208 75.005 67.208C74.7836 67.208 74.597 67.2853 74.445 67.44C74.293 67.592 74.217 67.7787 74.217 68C74.217 68.2213 74.293 68.4093 74.445 68.564ZM78.3359 67H78.5999V68.92C78.5999 69.208 78.5013 69.4347 78.3039 69.6C78.1066 69.7653 77.8706 69.848 77.5959 69.848C77.1266 69.848 76.8106 69.6853 76.6479 69.36L76.8799 69.228C76.9999 69.4707 77.2386 69.592 77.5959 69.592C77.8253 69.592 78.0053 69.5307 78.1359 69.408C78.2693 69.288 78.3359 69.1253 78.3359 68.92V68.608C78.1519 68.9013 77.8826 69.048 77.5279 69.048C77.2426 69.048 76.9986 68.9467 76.7959 68.744C76.5959 68.5413 76.4959 68.2933 76.4959 68C76.4959 67.7067 76.5959 67.4587 76.7959 67.256C76.9986 67.0533 77.2426 66.952 77.5279 66.952C77.8826 66.952 78.1519 67.0987 78.3359 67.392V67ZM76.9879 68.564C77.1399 68.716 77.3266 68.792 77.5479 68.792C77.7693 68.792 77.9559 68.716 78.1079 68.564C78.2599 68.4093 78.3359 68.2213 78.3359 68C78.3359 67.7787 78.2599 67.592 78.1079 67.44C77.9559 67.2853 77.7693 67.208 77.5479 67.208C77.3266 67.208 77.1399 67.2853 76.9879 67.44C76.8359 67.592 76.7599 67.7787 76.7599 68C76.7599 68.2213 76.8359 68.4093 76.9879 68.564ZM80.0829 66.952C80.3789 66.952 80.6176 67.0573 80.7989 67.268C80.9829 67.476 81.0749 67.7227 81.0749 68.008C81.0749 68.0373 81.0722 68.0787 81.0669 68.132H79.3109C79.3376 68.3347 79.4229 68.496 79.5669 68.616C79.7136 68.7333 79.8936 68.792 80.1069 68.792C80.2589 68.792 80.3896 68.7613 80.4989 68.7C80.6109 68.636 80.6949 68.5533 80.7509 68.452L80.9829 68.588C80.8949 68.7293 80.7749 68.8413 80.6229 68.924C80.4709 69.0067 80.2976 69.048 80.1029 69.048C79.7882 69.048 79.5322 68.9493 79.3349 68.752C79.1376 68.5547 79.0389 68.304 79.0389 68C79.0389 67.7013 79.1362 67.452 79.3309 67.252C79.5256 67.052 79.7762 66.952 80.0829 66.952ZM80.0829 67.208C79.8749 67.208 79.7002 67.2707 79.5589 67.396C79.4202 67.5187 79.3376 67.6787 79.3109 67.876H80.8029C80.7762 67.6653 80.6949 67.5013 80.5589 67.384C80.4229 67.2667 80.2642 67.208 80.0829 67.208ZM82.4308 66.952C82.6735 66.952 82.8642 67.0267 83.0028 67.176C83.1442 67.3227 83.2148 67.5213 83.2148 67.772V69H82.9508V67.772C82.9508 67.5933 82.9028 67.4547 82.8068 67.356C82.7135 67.2573 82.5802 67.208 82.4068 67.208C82.2148 67.208 82.0588 67.2693 81.9388 67.392C81.8188 67.512 81.7588 67.6987 81.7588 67.952V69H81.4948V67H81.7588V67.312C81.9082 67.072 82.1322 66.952 82.4308 66.952ZM84.6573 69.048C84.356 69.048 84.1053 68.948 83.9053 68.748C83.7053 68.5453 83.6053 68.296 83.6053 68C83.6053 67.704 83.7053 67.456 83.9053 67.256C84.1053 67.0533 84.356 66.952 84.6573 66.952C84.8546 66.952 85.032 67 85.1893 67.096C85.3466 67.1893 85.4613 67.316 85.5333 67.476L85.3173 67.6C85.264 67.48 85.1773 67.3853 85.0573 67.316C84.94 67.244 84.8066 67.208 84.6573 67.208C84.436 67.208 84.2493 67.2853 84.0973 67.44C83.9453 67.592 83.8693 67.7787 83.8693 68C83.8693 68.2213 83.9453 68.4093 84.0973 68.564C84.2493 68.716 84.436 68.792 84.6573 68.792C84.8066 68.792 84.94 68.7573 85.0573 68.688C85.1746 68.616 85.2666 68.52 85.3333 68.4L85.5533 68.528C85.4706 68.688 85.3493 68.8147 85.1893 68.908C85.0293 69.0013 84.852 69.048 84.6573 69.048ZM87.3723 67H87.6523L86.7963 69.184C86.719 69.3813 86.6083 69.536 86.4643 69.648C86.323 69.7627 86.1643 69.8133 85.9883 69.8V69.552C86.2283 69.5787 86.411 69.44 86.5363 69.136L86.5883 69.012L85.6923 67H85.9723L86.7243 68.676L87.3723 67Z" fill="white"/>
<rect x="91" width="50" height="48" fill="white"/>
<path d="M109.284 23.402C109.685 23.402 110.005 23.5327 110.243 23.794C110.486 24.0553 110.607 24.4053 110.607 24.844V27H109.704V24.907C109.704 24.697 109.653 24.5337 109.55 24.417C109.447 24.3003 109.303 24.242 109.116 24.242C108.911 24.242 108.75 24.3097 108.633 24.445C108.521 24.5803 108.465 24.7763 108.465 25.033V27H107.562V24.907C107.562 24.697 107.511 24.5337 107.408 24.417C107.305 24.3003 107.161 24.242 106.974 24.242C106.773 24.242 106.612 24.3097 106.491 24.445C106.374 24.5803 106.316 24.7763 106.316 25.033V27H105.413V23.5H106.316V23.871C106.526 23.5583 106.85 23.402 107.289 23.402C107.718 23.402 108.036 23.57 108.241 23.906C108.474 23.57 108.822 23.402 109.284 23.402ZM114.356 26.566C113.997 26.9207 113.558 27.098 113.04 27.098C112.522 27.098 112.083 26.9207 111.724 26.566C111.369 26.2067 111.192 25.768 111.192 25.25C111.192 24.732 111.369 24.2957 111.724 23.941C112.083 23.5817 112.522 23.402 113.04 23.402C113.558 23.402 113.997 23.5817 114.356 23.941C114.715 24.2957 114.895 24.732 114.895 25.25C114.895 25.768 114.715 26.2067 114.356 26.566ZM112.361 25.943C112.543 26.125 112.769 26.216 113.04 26.216C113.311 26.216 113.537 26.125 113.719 25.943C113.901 25.761 113.992 25.53 113.992 25.25C113.992 24.97 113.901 24.739 113.719 24.557C113.537 24.375 113.311 24.284 113.04 24.284C112.769 24.284 112.543 24.375 112.361 24.557C112.184 24.739 112.095 24.97 112.095 25.25C112.095 25.53 112.184 25.761 112.361 25.943ZM117.457 24.368H116.666V25.824C116.666 25.9453 116.696 26.034 116.757 26.09C116.818 26.146 116.906 26.1787 117.023 26.188C117.14 26.1927 117.284 26.1903 117.457 26.181V27C116.836 27.07 116.398 27.0117 116.141 26.825C115.889 26.6383 115.763 26.3047 115.763 25.824V24.368H115.154V23.5H115.763V22.793L116.666 22.52V23.5H117.457V24.368ZM118.542 23.08C118.392 23.08 118.262 23.0263 118.15 22.919C118.042 22.807 117.989 22.6763 117.989 22.527C117.989 22.3777 118.042 22.247 118.15 22.135C118.262 22.023 118.392 21.967 118.542 21.967C118.696 21.967 118.826 22.023 118.934 22.135C119.046 22.247 119.102 22.3777 119.102 22.527C119.102 22.6763 119.046 22.807 118.934 22.919C118.826 23.0263 118.696 23.08 118.542 23.08ZM118.094 27V23.5H118.997V27H118.094ZM122.126 23.5H123.12L121.79 27H120.761L119.431 23.5H120.425L121.272 25.95L122.126 23.5ZM124.182 25.621C124.303 26.0597 124.632 26.279 125.169 26.279C125.514 26.279 125.776 26.1623 125.953 25.929L126.681 26.349C126.336 26.8483 125.827 27.098 125.155 27.098C124.576 27.098 124.112 26.923 123.762 26.573C123.412 26.223 123.237 25.782 123.237 25.25C123.237 24.7227 123.41 24.284 123.755 23.934C124.1 23.5793 124.544 23.402 125.085 23.402C125.598 23.402 126.021 23.5793 126.352 23.934C126.688 24.2887 126.856 24.7273 126.856 25.25C126.856 25.3667 126.844 25.4903 126.821 25.621H124.182ZM124.168 24.921H125.953C125.902 24.683 125.794 24.5057 125.631 24.389C125.472 24.2723 125.29 24.214 125.085 24.214C124.842 24.214 124.642 24.277 124.483 24.403C124.324 24.5243 124.219 24.697 124.168 24.921Z" fill="black"/>
<path d="M137 44.33L137.128 44.33L137.128 44.618L137.734 44.618C137.789 44.618 137.828 44.6073 137.852 44.586C137.875 44.5647 137.887 44.5327 137.888 44.49C137.888 44.4473 137.887 44.394 137.884 44.33L138 44.33C138.021 44.4727 138.011 44.5787 137.97 44.648C137.927 44.716 137.849 44.75 137.734 44.75L137.128 44.75L137.128 44.96L137 44.96L137 44.75L136.76 44.75L136.72 44.618L137 44.618L137 44.33ZM137.83 43.152L137 42.906L137 42.77L138 43.078L138 43.222L137.194 43.48L138 43.738L138 43.882L137 44.19L137 44.054L137.83 43.808L137 43.546L137 43.414L137.83 43.152ZM136.976 42.148C136.976 41.9987 137.029 41.8793 137.134 41.79C137.238 41.698 137.361 41.652 137.504 41.652C137.511 41.652 137.531 41.6533 137.566 41.656L137.566 42.534C137.666 42.5207 137.746 42.478 137.806 42.406C137.866 42.334 137.896 42.244 137.896 42.136C137.896 41.984 137.839 41.8767 137.726 41.814L137.794 41.698C137.866 41.742 137.923 41.8027 137.964 41.88C138.004 41.956 138.024 42.042 138.024 42.138C138.024 42.2953 137.975 42.4233 137.876 42.522C137.777 42.6207 137.652 42.67 137.5 42.67C137.349 42.67 137.225 42.6213 137.126 42.524C137.026 42.4267 136.976 42.3013 136.976 42.148ZM137.104 42.148C137.104 42.252 137.135 42.3393 137.196 42.41C137.257 42.4793 137.338 42.5207 137.438 42.534L137.438 41.788C137.331 41.8027 137.249 41.8433 137.192 41.91C137.133 41.9793 137.104 42.0587 137.104 42.148ZM136.976 40.974C136.976 40.854 137.013 40.7587 137.088 40.688C137.161 40.6174 137.261 40.582 137.386 40.582L138 40.582L138 40.714L137.386 40.714C137.297 40.714 137.227 40.738 137.178 40.786C137.129 40.8327 137.104 40.8994 137.104 40.986C137.104 41.086 137.135 41.1654 137.198 41.224C137.261 41.2814 137.353 41.31 137.476 41.31L138 41.31L138 41.442L137 41.442L137 41.31L137.156 41.31C137.036 41.2354 136.976 41.1234 136.976 40.974ZM137 39.7968L137.128 39.7968L137.128 40.0848L137.734 40.0848C137.789 40.0848 137.828 40.0741 137.852 40.0528C137.875 40.0315 137.887 39.9995 137.888 39.9568C137.888 39.9141 137.887 39.8608 137.884 39.7968L138 39.7968C138.021 39.9395 138.011 40.0455 137.97 40.1148C137.927 40.1828 137.849 40.2168 137.734 40.2168L137.128 40.2168L137.128 40.4268L137 40.4268L137 40.2168L136.76 40.2168L136.72 40.0848L137 40.0848L137 39.7968ZM137.838 39.1613L137 38.8373L137 38.6973L138.092 39.1253C138.193 39.1653 138.271 39.2213 138.326 39.2933C138.382 39.3639 138.407 39.4426 138.4 39.5293L138.276 39.5293C138.291 39.4093 138.221 39.3179 138.068 39.2553L138.006 39.2293L137 39.6773L137 39.5373L137.838 39.1613ZM138 37.2077L138 38.0977L137.874 38.0977L137.366 37.5937C137.222 37.4497 137.099 37.3777 136.996 37.3777C136.909 37.3777 136.841 37.4051 136.79 37.4597C136.738 37.5131 136.712 37.5797 136.712 37.6597C136.712 37.8024 136.778 37.9071 136.91 37.9737L136.84 38.0917C136.755 38.0491 136.689 37.9897 136.644 37.9137C136.599 37.8377 136.576 37.7531 136.576 37.6597C136.576 37.5477 136.614 37.4497 136.69 37.3657C136.763 37.2804 136.865 37.2377 136.996 37.2377C137.073 37.2377 137.149 37.2591 137.224 37.3017C137.297 37.3444 137.378 37.4097 137.466 37.4977L137.864 37.8977L137.864 37.2077L138 37.2077ZM136.728 37.097L136.6 36.727L136.6 36.607L138 36.607L138 36.747L136.754 36.747L136.848 37.061L136.728 37.097Z" fill="black"/>
<rect x="86" width="2" height="48" fill="white"/>
<rect x="82" width="3" height="48" fill="white"/>
<rect x="79" width="2" height="48" fill="white"/>
<rect x="77" width="1" height="48" fill="white"/>
<rect x="75" width="1" height="48" fill="white"/>
<rect x="73" width="1" height="48" fill="white"/>
<rect x="66" width="6" height="48" fill="white"/>
<rect x="62" width="2" height="48" fill="white"/>
<rect x="56" width="5" height="48" fill="white"/>
<rect x="53" width="2" height="48" fill="white"/>
<rect x="48" width="4" height="48" fill="white"/>
<rect x="46" width="1" height="48" fill="white"/>
<rect x="43" width="1" height="48" fill="white"/>
<rect x="40" width="2" height="48" fill="white"/>
<rect x="37" width="1" height="48" fill="white"/>
<rect x="35" width="1" height="48" fill="white"/>
<rect x="33" width="1" height="48" fill="white"/>
<rect x="29" width="3" height="48" fill="white"/>
<rect x="20" width="7" height="48" fill="white"/>
<rect x="14" width="2" height="48" fill="white"/>
<rect x="9" width="2" height="48" fill="white"/>
<rect width="6" height="48" fill="white"/>
</svg>
